<svg xmlns="http://www.w3.org/2000/svg" width="24" height="24" viewBox="0 0 24 24">
    <path fill="#008080" d="
    M 12 23
    l 8 0 l 0 -4 l -8 3 z
    l -8 0 l 0 -4 l 8 3 z
    M 7 1
    l 2 2 l -5 5 l -2 -2
    a 3 3 180 0 1 5 -5
    M 17 1
    l -2 2 l 5 5 l 2 -2
    a 3 3 180 0 0 -5 -5
    "/>

    <circle fill="#808080" cx="12" cy="12" r="9" />

    <path fill="black" d="
    M 7.75 13
    c -0.01 -0.35 0.15 -0.69 0.42 -0.92
    c 0.75 0.16 1.45 0.47 2.08 0.92
    c 0 0.68 -0.56 1.24 -1.25 1.24
    S 7.76 13.69 7.75 13

    m 6 0
    c 0.63 -0.44 1.33 -0.75 2.08 -0.91
    c 0.27 0.23 0.43 0.57 0.42 0.91
    c 0 0.7 -0.56 1.26 -1.25 1.26
    s -1.25 -0.56 -1.25 -1.26

    M 12 9
    c -2.77 -0.04 -5.5 0.65 -7.93 2
    L 4 12
    c 0 1.23 0.29 2.44 0.84 3.54
    a 47.642 47.642 0 0 1 14.32 0
    c 0.55 -1.1 0.84 -2.31 0.84 -3.54
    l -0.07 -1
    A 15.849 15.849 0 0 0 12 9

    m 0 -7
    a 10 10 0 0 1 10 10
    a 10 10 0 0 1 -10 10
    A 10 10 0 0 1 2 12
    A 10 10 0 0 1 12 2
    "/>

</svg>
